<?xml version="1.0" encoding="utf-8"?>
<!-- Generator: Adobe Illustrator 26.0.3, SVG Export Plug-In . SVG Version: 6.00 Build 0)  -->
<svg version="1.1" id="Camada_1" xmlns="http://www.w3.org/2000/svg" xmlns:xlink="http://www.w3.org/1999/xlink" x="0px" y="0px"
	 viewBox="0 0 293 291" style="enable-background:new 0 0 293 291;" xml:space="preserve">
<style type="text/css">
	.st0{fill:#DBC288;}
	.st1{fill:#D5313E;}
	.st2{fill:#FFFFFF;}
	.st3{fill:#CA9E67;}
</style>
<g>
	<g>
		<g>
			<path class="st0" d="M189.2,36L175.2,6.7l-25.1,21.2C163.9,28.4,177,31.2,189.2,36z"/>
		</g>
		<g>
			<path class="st0" d="M141,27.9L115.9,6.7L101.8,36C114,31.2,127.2,28.4,141,27.9z"/>
		</g>
		<g>
			<path class="st0" d="M93.1,39.7l-31.4-9.2L61,62.4C70.3,53.2,81.1,45.5,93.1,39.7z"/>
		</g>
		<g>
			<path class="st0" d="M25.9,146c0-11.2,1.6-22.1,4.5-32.4L3.8,129.7L26,150.5C26,149,25.9,147.5,25.9,146z"/>
		</g>
		<g>
			<path class="st0" d="M287.3,129.7l-26.7-16.1c3,10.3,4.5,21.1,4.5,32.4c0,1.5,0,3-0.1,4.5L287.3,129.7z"/>
		</g>
		<g>
			<path class="st0" d="M256.8,102.8L268.9,74L237,69.9C245.3,79.7,252.1,90.7,256.8,102.8z"/>
		</g>
		<g>
			<path class="st0" d="M230.1,62.4l-0.8-31.9l-31.4,9.2C209.9,45.5,220.8,53.2,230.1,62.4z"/>
		</g>
		<g>
			<path class="st0" d="M54,69.9L22.1,74l12.1,28.7C39,90.7,45.7,79.7,54,69.9z"/>
		</g>
		<g>
			<path class="st0" d="M27.2,163.3L10,188l28,9.8C32.7,187.1,29,175.5,27.2,163.3z"/>
		</g>
		<g>
			<path class="st0" d="M253.1,197.7l28-9.8l-17.2-24.7C262,175.5,258.3,187.1,253.1,197.7z"/>
		</g>
		<g>
			<path class="st0" d="M178.4,259.7l25,13.5l6.7-27.7C200.5,251.6,189.8,256.4,178.4,259.7z"/>
		</g>
		<g>
			<path class="st0" d="M222.5,236.4l28.9,2.3l-5.4-28.6C239.5,220,231.6,228.9,222.5,236.4z"/>
		</g>
		<g>
			<path class="st0" d="M45,210.1l-5.4,28.6l28.9-2.3C59.4,228.9,51.5,220,45,210.1z"/>
		</g>
		<g>
			<path class="st0" d="M80.9,245.5l6.7,27.7l25-13.5C101.2,256.4,90.6,251.6,80.9,245.5z"/>
		</g>
		<g>
			<path class="st0" d="M145.5,264.2c-5.9,0-11.7-0.4-17.3-1.2l17.3,22.4l17.3-22.4C157.2,263.8,151.4,264.2,145.5,264.2z"/>
		</g>
	</g>
	<g>
		<g>
			<g>
				<path class="st0" d="M145.5,258.7c-62.1,0-112.6-50.5-112.6-112.6S83.4,33.4,145.5,33.4c62.1,0,112.6,50.5,112.6,112.6
					S207.6,258.7,145.5,258.7z M145.5,37.1C85.5,37.1,36.6,85.9,36.6,146c0,60.1,48.9,108.9,108.9,108.9S254.4,206.1,254.4,146
					C254.4,85.9,205.6,37.1,145.5,37.1z"/>
			</g>
		</g>
	</g>
	<g>
		<g>
			<path class="st1" d="M118.8,169.5c-7.4,0-13.3-5.6-14.5-13.6c-0.8-5.4,0.2-10.9,3.2-17.2c2.7-5.7,6-9.5,10.4-11.9
				c2.6-1.4,5.3-2.1,8.1-2.1c1.4,0,2.9,0.2,4.3,0.6c2.4,0.7,4.3,2.1,5.4,4.1c0.7,1.3,1,2.7,0.9,4.2c1.6,1.5,2.4,3.3,3,4.8
				c0.2,0,0.4,0,0.5-0.1c0.4-0.1,1-0.1,1.3-0.2c0.1-0.3,0.2-0.9,0.4-1.3c3.6-14,10.1-26.1,19.3-36.1c2.6-2.8,6.2-6.3,11.4-8
				c1.1-0.4,2.2-0.6,3.2-0.7c0.4,0,0.7,0,1,0c3.1,0,7,1.3,7.8,7.4c0.5,4.2-0.5,7.9-1.5,10.8c-1.6,4.8-4.2,9.5-8,14.7
				c-3.6,4.9-8.5,11.3-14.5,16.9c-1,0.9-2.1,1.7-3.1,2.5c-0.6,0.5-1.3,0.9-1.9,1.4c0,0,0,0,0,0c0.1,1.1,0.2,2.2,0.6,3.1
				c0.3,0.9,0.9,1.3,1.8,1.3c0.3,0,0.6,0,0.9-0.1c3-0.8,5.4-3,8-5.5c4.7-4.6,8.8-10,12.8-15.2c1.1-1.4,2.2-2.9,3.3-4.3
				c1.1-1.4,2.2-2.6,3.4-3.6c1.2-1.1,2.7-1.6,4.4-1.6c0.9,0,1.8,0.2,2.9,0.5c2.4,0.7,3.5,2.8,2.9,5.2c0,0.3-0.1,0.8-0.5,1.3
				c-0.7,1.1-0.6,2.2,0.5,4.5c0.3,0.7,0.7,1.5,1.1,2.2c0.3,0.7,0.7,1.4,1,2.2c0.9,1.9,1.7,3.8,2.6,5.7c1.4-1,2.5-2,3.4-3.2
				c0.4-0.5,0.6-1.3,0.9-2.2c0.1-0.4,0.2-0.8,0.4-1.2c2.4-7.2,6.3-12.2,11.9-15.3c1.7-1,4.4-2.3,7.5-2.3c1.1,0,2.1,0.2,3.2,0.5
				c2.8,0.8,4.7,3.1,4.9,5.9c0.1,0.8,0,1.5-0.3,2.1c0.1,0,0.2,0.1,0.4,0.1c1,0.4,2.1,1,3,1.8c0.9,0.7,1.8,1.1,2.5,1.1
				c0.3,0,1.1,0,2.2-1.2c1.9-1.9,3.7-4.1,6-7.2c0.8-1.1,2.1-2.9,4.4-2.9c1.2,0,2.3,0.5,3.3,1.1c0.4,0.2,0.8,0.5,1.2,0.8
				c1.3,0.9,2.2,1.9,2.7,3c0.2-0.2,0.4-0.4,0.6-0.7c2.2-2.3,4.7-4.5,7.2-6.4c1.5-1.2,3.2-1.8,5-1.8c1.7,0,3.4,0.6,5.1,1.7
				c5.9,4,5.8,7,3.1,12.1c-1.5,2.9-2.7,6-4,9c-0.2,0.4-0.3,0.9-0.5,1.3c0.6-0.3,1.2-0.5,1.9-0.5c1,0,2,0.4,2.9,1.1
				c3.4,2.7,2.8,5.5,2.2,6.9c-0.8,1.7-1.6,3.1-2.7,4.2c-1.7,1.8-3.4,3.5-5.1,5.2l-1.2,1.2c-0.9,0.9-2,1.4-3.2,1.4
				c-1.2,0-2.3-0.5-3.3-1.4c-3.5-3.3-5.4-6.8-5.8-10.8c-0.3-3.3,0.5-6.4,1.5-9c-2.3,2.5-4.3,5.5-6.2,8.9c-1.5,2.6-2.8,5.4-4.2,8.1
				c-0.5,0.9-0.9,1.8-1.4,2.7c-0.4,0.8-1.6,3.2-4.2,3.2c-1.3,0-2.4-0.6-3.1-1.1c-1.1-0.7-2-1.5-2.8-2.3c-2-1.8-2.6-4.2-1.9-6.9
				c0,0,1.8-6.2,2.1-7.1c-0.5,0.2-1.1,0.3-1.7,0.4c-0.1,0-0.1,0-0.2,0c0,0.1,0,0.2-0.1,0.3c-1.6,6.9-5.5,12.5-11.7,16.6
				c-2.5,1.6-5.3,2.4-8.3,2.4c-1.3,0-2.6-0.1-3.9-0.4c-3.5-0.8-6.2-3.2-8.2-7.3c-0.1-0.3-0.3-0.6-0.4-0.9c-0.9,0.8-1.8,1.5-2.8,2.3
				c-2,1.7-4,3.4-6.1,5c-3.2,2.5-6.4,3.8-9.6,3.8c-1.9,0-3.7-0.4-5.6-1.3c-1.8-0.8-3.2-2.3-4.4-3.5c-1.5-1.5-1.7-3.9-0.5-5.9
				c0.3-0.4,0.5-0.9,0.8-1.3c0.6-1,1.1-2,1.8-3c-0.8,0.9-1.5,1.9-2.3,2.8c-3.3,4-7.1,8.2-11.7,11.3c-3.3,2.3-6.5,3.4-9.8,3.4
				c-1.7,0-3.4-0.3-5.1-0.9c-4.2-1.6-7.1-5-8.9-10.4c-0.4-1.3-0.7-2.7-0.9-4c-0.7,0.1-1.4,0.2-2.1,0.4c-1.6,6-5.1,11-10.6,15.1
				C125.5,168.3,122.2,169.5,118.8,169.5z M123.3,138.6c-3.5,3.5-5.2,7.7-5,12.5c0,0.9,0.3,2.9,2.1,2.9l0,0c0.7,0,1.4-0.3,2.2-0.8
				c2-1.3,3.4-3.2,4.5-6.2c-0.1-0.1-0.3-0.2-0.5-0.4c-0.4-0.3-0.8-0.6-1.3-1c-2.2-2.1-2.9-4.4-2.1-6.8
				C123.2,138.8,123.2,138.7,123.3,138.6z M183.7,145.6c0.9,0,2.7,0.4,3.9,2.8c0.4,0.7,0.6,0.9,0.6,0.9c0,0,0.1,0,0.2-0.1
				c0.5-0.1,0.5-0.7,0.5-1c-0.1-1.1-0.3-2.2-0.6-3.2c-0.6-1.7-1.2-3.3-1.9-5.1l-0.9,1.2c-1.4,1.8-2.9,3.7-4.3,5.5
				C182,145.8,183,145.6,183.7,145.6z M224.6,129.2c-1.6,0.8-2.8,2.1-3.7,3.9c-1.6,3.2-2.4,6.1-2.4,9c0,1,0.2,2.1,0.5,3
				c0.3,0.7,0.9,1.1,1.6,1.1c0.2,0,0.4,0,0.6-0.1c0.8-0.2,1.5-0.6,2-1c1.6-1.3,2.9-2.9,3.9-5.2c-1.4-1-2.4-2-3.1-3
				c-0.9-1.4-1.1-3.4-0.6-5C223.6,131,224.1,130.2,224.6,129.2z M167.7,112.6c-0.7,0.5-1.3,1.1-1.8,1.7c-2.7,3.1-5,6.8-6.9,11.2
				c3.1-3.5,5.7-7,7.8-10.7C167.1,114.2,167.4,113.4,167.7,112.6z"/>
			<path class="st2" d="M176.7,94.4c3.3,0,4.9,1.6,5.3,5.2c0.4,3.4-0.3,6.5-1.4,9.7c-1.8,5.1-4.5,9.7-7.7,14.1
				c-4.3,5.9-8.8,11.6-14.1,16.5c-1.5,1.4-3.3,2.5-4.8,3.8c-0.4,0.4-1,1-1,1.5c0.1,1.5,0.2,3.1,0.8,4.5c0.7,1.9,2.3,3,4.2,3
				c0.5,0,1-0.1,1.6-0.2c3.7-1,6.4-3.5,9-6.1c6.2-6,11-13,16.3-19.8c0.9-1.2,1.9-2.3,3-3.3c0.8-0.7,1.8-1,2.7-1
				c0.7,0,1.4,0.1,2.1,0.4c1.1,0.4,1.5,1.2,1.2,2.3c0,0.2,0,0.4-0.1,0.5c-1.5,2.4-0.7,4.7,0.3,6.9c0.7,1.5,1.4,2.9,2.1,4.4
				c1.2,2.7,2.5,5.4,3.8,8.3c2.5-1.3,4.8-3,6.5-5.3c0.8-1.2,1.1-2.7,1.6-4.1c2-5.9,5.2-10.8,10.8-13.9c2-1.1,4-1.9,6.2-1.9
				c0.8,0,1.6,0.1,2.5,0.4c1.8,0.5,3,2,3.1,3.6c0.1,1.2-0.4,1.9-1.6,2.1c-0.8,0.1-1.6,0.1-2.4,0.2c-3.6,0.7-6.3,2.8-8,6.1
				c-1.6,3.2-2.7,6.6-2.7,10.2c0,1.3,0.2,2.7,0.7,3.9c0.6,1.7,2.2,2.7,3.9,2.7c0.4,0,0.9-0.1,1.3-0.2c1-0.3,2-0.8,2.8-1.4
				c2.3-1.8,3.8-4.1,4.9-6.8c0.4-1,0.1-1.6-0.8-2.2c-1-0.7-2.1-1.5-2.8-2.6c-0.5-0.7-0.6-2-0.3-2.9c0.4-1.3,1.2-2.6,2.1-3.8
				c0.7-0.9,1.5-1.4,2.5-1.4c0.6,0,1.2,0.1,2,0.4c0.9,0.3,1.7,0.8,2.4,1.4c1.4,1.1,2.7,1.6,4.1,1.6c1.4,0,2.7-0.6,4-1.9
				c2.3-2.3,4.3-4.9,6.2-7.5c0.9-1.2,1.5-1.8,2.4-1.8c0.5,0,1.2,0.2,2,0.7c0.4,0.2,0.7,0.5,1.1,0.7c2,1.4,2.5,2.7,1.9,5.1
				c-0.3,1.1-0.6,2.2-1,3.6c2-2.4,3.7-4.7,5.6-6.7c2.2-2.2,4.5-4.3,6.9-6.2c1.1-0.9,2.3-1.3,3.5-1.3c1.2,0,2.5,0.5,3.8,1.3
				c4.5,3.1,4.6,4.4,2.3,8.9c-1.9,3.8-3.4,7.8-5.1,11.7c-0.3,0.7-0.3,1.6-0.3,2.4c0,0.9,0.3,1.4,0.8,1.4c0.3,0,0.6-0.1,1-0.3
				c0.5-0.2,1-0.5,1.4-0.9c0.6-0.5,1.2-0.9,1.9-0.9c0.4,0,0.9,0.2,1.3,0.5c1.5,1.2,2.2,2.5,1.5,4c-0.6,1.3-1.3,2.5-2.2,3.5
				c-2,2.2-4.1,4.2-6.2,6.3c-0.5,0.4-1,0.6-1.4,0.6c-0.5,0-1.1-0.3-1.6-0.7c-2.7-2.5-4.6-5.4-5-9.2c-0.3-3.3,0.7-6.4,1.9-9.4
				c0.7-1.9,1.5-3.8,2.2-5.7c0.1-0.3,0.1-0.5,0.2-0.8c-0.1-0.1-0.2-0.2-0.3-0.3c-0.9,0.6-2,1.2-2.8,1.9c-4.4,3.7-7.8,8.3-10.6,13.3
				c-2,3.6-3.7,7.3-5.6,10.9c-0.6,1.2-1.2,1.8-1.9,1.8c-0.5,0-1.1-0.2-1.8-0.7c-0.9-0.6-1.7-1.3-2.5-2c-1.3-1.2-1.6-2.7-1.2-4.3
				c1-3.4,2-6.8,3-10.1c0.1-0.5,0.2-1,0.3-1.5c-2,0.6-3.8,1.4-5.7,1.8c-1.5,0.2-2,0.8-2.3,2.2c-1.5,6.4-5.1,11.4-10.7,15.1
				c-2.2,1.4-4.5,2-6.9,2c-1.1,0-2.3-0.1-3.4-0.4c-3.2-0.7-5.1-3.1-6.4-6c-0.5-1.1-1-2.3-1.6-3.8c-0.8,0.6-1.5,1.1-2.2,1.7
				c-3.1,2.6-6.1,5.2-9.3,7.7c-2.5,2-5.2,3.3-8.1,3.3c-1.5,0-3-0.3-4.5-1c-1.4-0.7-2.6-1.9-3.7-3c-0.7-0.8-0.7-1.9-0.2-2.9
				c0.9-1.6,1.8-3.2,2.8-4.7c0.5-0.7,1-1.1,1.6-1.1c0.6,0,1.2,0.5,1.6,1.4c0.8,1.5,1.6,2.2,2.8,2.2c0.3,0,0.5,0,0.8-0.1
				c1.5-0.3,2.6-1.7,2.4-3.6c-0.1-1.3-0.3-2.6-0.8-3.9c-0.8-2.3-1.7-4.5-2.6-6.7c-0.5-1.1-0.8-1.7-1.2-1.7c-0.4,0-0.8,0.4-1.5,1.3
				c-3.2,4.1-6.4,8.3-9.8,12.3c-3.3,4-6.8,7.9-11.2,10.9c-2.6,1.8-5.4,3-8.4,3c-1.4,0-2.8-0.2-4.2-0.8c-4.1-1.5-6.1-4.9-7.4-8.8
				c-0.6-2-0.9-4-1.3-6.1c-1.8,0.3-3.7,0.6-5.6,1c-0.3,0.1-0.6,0.6-0.7,0.9c-1.4,6.1-4.9,10.8-9.8,14.4c-2.6,2-5.5,2.9-8.2,2.9
				c-5.8,0-11-4.3-12-11.4c-0.8-5.6,0.7-10.8,3-15.8c2.1-4.4,4.8-8.4,9.3-10.8c2.2-1.2,4.5-1.8,6.9-1.8c1.2,0,2.4,0.2,3.7,0.5
				c3.4,0.9,5.2,3.9,4.3,6.9c2,1.3,2.9,3.2,3.6,5.4c0.2,0.6,0.4,1,1,1c0.1,0,0.2,0,0.3,0c0.5-0.1,1.1-0.1,1.6-0.2
				c2.9-0.4,3-0.5,3.7-3.3c3.4-13.2,9.5-25,18.7-35c2.9-3.2,6.2-5.9,10.3-7.4c0.8-0.3,1.7-0.5,2.6-0.6
				C176.2,94.4,176.5,94.4,176.7,94.4 M153.3,134.3c0.3-0.1,0.4-0.1,0.5-0.2c0.3-0.3,0.7-0.5,1-0.8c5.5-5.1,10.3-10.7,14-17.2
				c0.9-1.6,1.6-3.5,2-5.3c0.3-1.3-0.2-2.1-1.1-2.1c-0.3,0-0.8,0.1-1.2,0.4c-1.7,1-3.3,2.2-4.6,3.6c-4.6,5.3-7.6,11.5-9.7,18.1
				C153.9,131.9,153.7,133,153.3,134.3 M120.4,156.5c1.1,0,2.3-0.4,3.6-1.2c3.1-2,4.7-5,5.8-8.3c0.1-0.4-0.3-1.2-0.7-1.6
				c-0.6-0.6-1.4-1-2-1.6c-1.2-1.1-2-2.5-1.5-4.2c0.4-1.3,1.1-2.6,1.6-3.9c-0.7-0.4-1.4-0.5-2.1-0.5c-1.2,0-2.5,0.5-3.5,1.6
				c-4,3.9-6,8.8-5.8,14.4C115.9,154.5,117.8,156.5,120.4,156.5 M176.7,89.4c-0.4,0-0.8,0-1.2,0c-1.2,0.1-2.5,0.4-3.9,0.8
				c-5.6,1.9-9.6,5.7-12.4,8.7c-8.9,9.7-15.4,21.3-19.2,34.7c-0.3-0.4-0.6-0.8-0.9-1.2c-0.1-1.5-0.5-3-1.2-4.4
				c-1.4-2.6-3.9-4.4-6.9-5.3c-1.6-0.5-3.3-0.7-5-0.7c-3.2,0-6.3,0.8-9.3,2.4c-4.9,2.6-8.5,6.8-11.4,13c-3.2,6.8-4.3,12.8-3.4,18.7
				c1.3,9.2,8.3,15.7,17,15.7c3.9,0,7.8-1.3,11.2-3.9c4.5-3.4,7.8-7.4,9.9-12c2,5.8,5.4,9.5,10.1,11.3c1.9,0.7,3.9,1.1,5.9,1.1
				c3.7,0,7.5-1.3,11.2-3.9c2.7-1.9,5.1-4.1,7.3-6.4c0.3,0.8,0.8,1.5,1.4,2.1c1.3,1.3,2.9,3,5.2,4.1c2.2,1,4.4,1.5,6.6,1.5
				c3.8,0,7.5-1.5,11.2-4.3c2.1-1.7,4.2-3.4,6.2-5.1c0.1-0.1,0.2-0.2,0.3-0.3c2.2,3.7,5.2,5.9,8.9,6.7c1.5,0.3,3,0.5,4.4,0.5
				c3.5,0,6.8-1,9.7-2.9c3.2-2.1,5.8-4.5,7.9-7.3c0.5,1.4,1.3,2.7,2.5,3.7c0.9,0.8,1.9,1.7,3.2,2.5c1,0.6,2.5,1.5,4.5,1.5
				c1.9,0,4.5-0.8,6.4-4.5c0.5-0.9,0.9-1.8,1.4-2.8c1.4-2.8,2.7-5.4,4.1-8c0-0.1,0.1-0.2,0.1-0.2c0.6,4.4,2.7,8.3,6.5,11.8
				c1.4,1.3,3.2,2,5,2c1.8,0,3.6-0.7,4.9-2.1c0.4-0.4,0.8-0.8,1.2-1.2c1.7-1.7,3.5-3.4,5.2-5.3c1.2-1.3,2.2-2.9,3.1-4.9
				c0.8-1.7,2-6-2.9-9.9c-0.9-0.7-1.8-1.1-2.6-1.4c0.9-2.2,1.8-4.4,2.9-6.4c3.1-6,3.4-10.4-3.9-15.3c-2.1-1.4-4.3-2.2-6.5-2.2
				c-2.3,0-4.6,0.8-6.6,2.4c-2.1,1.6-4.1,3.4-6,5.3c-0.4-0.4-0.9-0.8-1.5-1.2c-0.4-0.3-0.9-0.6-1.4-0.9c-1.1-0.6-2.7-1.4-4.5-1.4
				c-3.6,0-5.6,2.7-6.4,3.9c-2.2,3-3.9,5.1-5.7,6.9c-0.2,0.2-0.4,0.4-0.5,0.4c-0.1,0-0.5-0.2-0.9-0.6c-0.7-0.6-1.4-1-2.2-1.4
				c0-0.3,0-0.5,0-0.8c-0.3-3.8-2.9-7-6.7-8.1c-1.3-0.4-2.6-0.6-3.9-0.6c-3.7,0-6.7,1.5-8.7,2.6c-6.2,3.5-10.4,9-13,16.7
				c-0.1,0.4-0.3,0.9-0.4,1.3c-0.1,0.5-0.4,1.3-0.5,1.5c-0.1,0.2-0.3,0.4-0.5,0.6c-0.4-0.9-0.8-1.8-1.2-2.7
				c-0.3-0.7-0.7-1.5-1.1-2.2c-0.3-0.7-0.7-1.4-1-2.2c-0.7-1.4-0.7-1.9-0.7-2.1c0,0,0,0,0,0c0,0,0,0,0.1-0.1
				c0.6-0.9,0.7-1.7,0.8-2.1c0.9-3.7-1-7-4.6-8.1c-1.3-0.4-2.4-0.6-3.6-0.6c-2.3,0-4.3,0.8-6,2.2c-1.3,1.1-2.5,2.5-3.7,4
				c-1.1,1.4-2.2,2.9-3.3,4.3c-4.1,5.4-7.9,10.5-12.5,14.9c-2.4,2.3-4.3,4.1-6.7,4.8c-0.1-0.2-0.1-0.5-0.1-0.7
				c0.2-0.2,0.5-0.4,0.7-0.5c1-0.8,2.2-1.6,3.3-2.6c6.2-5.7,11.2-12.2,14.8-17.2c4-5.5,6.6-10.4,8.4-15.4c1.1-3.1,2.2-7.2,1.6-11.9
				C186.3,92.8,182.5,89.4,176.7,89.4L176.7,89.4z M221.2,143.4c-0.1-0.4-0.2-0.9-0.2-1.3c0-1.4,0.2-2.8,0.6-4.2
				c0.1,0.1,0.1,0.2,0.2,0.4c0.5,0.8,1.2,1.6,2,2.4c-0.7,1-1.4,1.9-2.2,2.5C221.6,143.2,221.4,143.3,221.2,143.4L221.2,143.4z
				 M120.8,151.4c0-0.1,0-0.2,0-0.4c-0.1-2.1,0.3-4,1-5.8c0.5,0.7,1,1.5,1.8,2.2c0.2,0.1,0.3,0.3,0.5,0.4c-0.8,1.5-1.6,2.5-2.7,3.3
				C121.1,151.2,120.9,151.3,120.8,151.4L120.8,151.4z"/>
		</g>
		<g>
			<path class="st1" d="M83.7,199.7c-2,0-3.3-1.4-4.1-4.2c-0.8-2.8-1.2-6-1.5-9.4c-0.5-8.6,2-16.6,4.5-24.3l0.1-0.2
				c3.1-9.6,6.7-19.1,10.4-27.8c-0.5,0.7-1,1.4-1.4,2.2c-0.5,0.8-1.1,1.6-1.6,2.4l-1.9,2.8c-5.7,8.5-11.6,17.2-16.6,26.3
				c-0.6,1.2-1.4,2.1-2.1,2.9c-1.9,2.2-4,2.6-5.3,2.6c-1,0-2-0.2-3-0.7c-1.4-0.6-2.8-1.4-4.1-2.4c-3.3-2.5-4.1-5.3-2.6-9.2
				c1-2.6,2.2-5.2,3.2-7.8c0.7-1.7,1.4-3.3,2.1-5c3.9-9.4,7.1-17.3,10.1-24.5c-0.6,0.7-1.1,1.4-1.7,2.1
				c-13,16.9-23.2,31.5-31.9,45.9c0,0.1-0.1,0.2-0.1,0.2c-1.7,2.7-4.1,4.2-6.8,4.2c-2.8,0-5.4-1.7-7.1-4.7c-1-1.8-1.1-3.9-0.1-5.8
				c0.8-1.7,1.7-3.3,2.5-4.7c6.4-11,12-21,16.2-31.7c1.8-4.7,3.2-9.4,4.2-14.2c-8.2,6-16.3,11-24.8,15.2c-1.8,0.9-3.8,1.6-5.6,2.3
				l-0.6,0.2c-0.7,0.3-1.9,0.6-3.1,0.6c-1.6,0-3-0.6-4.1-1.8c-2-2.1-2.6-4.9-1.7-7.7c0.4-1.3,1.2-3,2.6-4.2c2.3-2,4.8-3.8,7.1-5.6
				c0.7-0.6,1.5-1.1,2.2-1.7c0.4-0.3,0.8-0.5,1.2-0.6c0.1,0,0.3-0.1,0.4-0.2l4.3-1.9l-0.8,4.9c0,0,0,0,0,0
				c9.1-5.6,17.4-12.2,24.5-19.5c1.7-1.7,3.5-2.6,5.3-2.6c2,0,3.8,1,5.5,2.9c2.3,2.7,3.2,5.9,2.9,9.9c-0.3,3.5-0.9,6.9-1.7,10.3
				c4.5-5.6,9.2-11.3,13.8-16.9c1.1-1.3,2.4-2.4,3.7-3.5c0.3-0.3,0.6-0.5,1-0.8c1.1-0.9,2.4-1.4,3.8-1.4c0.9,0,1.8,0.2,2.8,0.5
				c5.6,2.1,8.1,7,6.3,12.6c-1.7,5.2-3.5,10.5-5.3,15.6c4-5.6,7.9-10.7,12-15.5c3.3-3.9,7.7-8.9,12.9-13.2c1.1-1,3.1-2.6,5.7-2.6
				c0.2,0,0.5,0,0.8,0c0.7,0.1,1.3,0.2,1.8,0.5c2.5,1.1,4.6,3.4,5.7,6.3c1,2.7,1,5.7-0.2,8.1c-1.2,2.6-2.5,5.1-3.7,7.6
				c-1.1,2.3-2.3,4.6-3.4,7c-6.4,13.6-11.5,25.2-15.5,37.3c-1.1,3.3-1.9,6.9-2.7,10.3c-0.2,1-0.5,1.9-0.7,2.9c0.2,0,0.4-0.1,0.7-0.1
				c0.8,0,2,0.3,3,1.5c2.1,2.6,1.9,5,1.3,6.5c-0.3,0.8-0.8,1.5-1.1,2l-0.8,1c-4.2,5.4-8.4,10.8-12.6,16.1
				C86.9,198.3,85.6,199.7,83.7,199.7C83.7,199.7,83.7,199.7,83.7,199.7z"/>
			<path class="st2" d="M115.3,92.6c0.2,0,0.3,0,0.5,0c0.4,0,0.8,0.1,1.1,0.3c3.9,1.8,6.1,7.1,4.3,11c-2.3,4.9-4.8,9.7-7.1,14.6
				c-5.8,12.3-11.3,24.7-15.6,37.6c-1.5,4.4-2.4,8.9-3.5,13.4c-0.2,0.8-0.1,1.8,0.1,2.6c0.1,0.6,0.5,0.9,0.9,0.9
				c0.2,0,0.4,0,0.6-0.1c0.5-0.2,1-0.5,1.5-0.5c0.4,0,0.7,0.1,1.1,0.6c1,1.2,1.5,2.5,0.9,4c-0.2,0.5-0.5,0.9-0.8,1.3
				c-4.4,5.7-8.9,11.4-13.3,17.1c-0.9,1.1-1.6,1.7-2.2,1.7c-0.7,0-1.2-0.8-1.7-2.3c-0.8-2.9-1.2-5.9-1.4-8.9
				c-0.5-8.2,2-15.9,4.4-23.6c4.5-14,10.2-27.6,16.1-41.1c0.2-0.6,0.4-1.2,0.6-1.7c-0.1-0.1-0.2-0.2-0.4-0.2c-0.5,0.5-1,1-1.5,1.5
				c-4.6,4.9-8.2,10.6-11.9,16.2c-6.5,9.6-13.1,19.1-18.5,29.3c-0.5,0.9-1.1,1.7-1.8,2.5c-1,1.2-2.2,1.8-3.5,1.8
				c-0.6,0-1.3-0.2-2.1-0.5c-1.3-0.6-2.5-1.3-3.6-2.1c-2.4-1.8-2.9-3.4-1.8-6.3c1.7-4.3,3.6-8.5,5.3-12.7
				c3.9-9.4,7.8-18.8,11.6-28.2c0.5-1.3,0.9-2.7,1.2-4c0.1-0.6,0-1.2,0-1.8c-0.5,0.3-1.2,0.5-1.6,0.9c-2.4,2.7-4.9,5.4-7.1,8.3
				c-11.5,14.9-22.4,30.2-32.1,46.2c0,0,0,0.1-0.1,0.1c-1.3,2-3,3.1-4.7,3.1c-1.8,0-3.6-1.1-4.9-3.4c-0.7-1.2-0.6-2.4,0-3.6
				c0.7-1.5,1.6-3,2.4-4.5c6-10.4,12-20.8,16.4-32c2.4-6.1,4.1-12.4,5-19c0.1-0.5,0.1-1.1,0.1-1.8c-9.2,7.3-18.8,13.5-29.2,18.6
				c-1.9,0.9-3.9,1.6-5.9,2.4c-0.7,0.3-1.5,0.5-2.3,0.5c-0.8,0-1.6-0.3-2.3-1c-1.4-1.5-1.7-3.4-1.1-5.3c0.4-1.1,0.9-2.3,1.8-3
				c3-2.5,6.1-4.9,9.3-7.3c0.2-0.2,0.5-0.2,1.1-0.5c-0.2,1.2-0.4,2.2-0.5,3.2c-0.2,0.9,0,1.3,0.5,1.3c0.2,0,0.5-0.1,0.9-0.2
				c1-0.4,2-0.9,3-1.5c9.1-5.6,17.5-12.2,25-19.9c1.2-1.2,2.4-1.8,3.5-1.8c1.2,0,2.4,0.7,3.6,2c2,2.3,2.6,5,2.3,8
				c-0.6,6.7-2.4,13.1-4.1,19.5c-0.1,0.4-0.2,0.9-0.1,1.4c1.5-2,3-4,4.5-5.9c5.4-6.6,10.7-13.2,16.2-19.7c1.2-1.5,2.8-2.7,4.3-4
				c0.7-0.6,1.4-0.8,2.2-0.8c0.6,0,1.3,0.1,1.9,0.4c4.3,1.6,6.2,5.2,4.8,9.4c-2.5,7.7-5.2,15.4-7.8,23.1c-0.9,2.5-1.7,5.1-2.6,7.6
				c-0.1,0.3-0.2,0.7-0.3,1.1c0.1,0.1,0.2,0.1,0.3,0.2c0.5-0.7,1-1.3,1.4-2c6.1-9.6,12.6-18.8,19.9-27.4c3.9-4.6,8-9,12.6-12.9
				C112.4,93.6,113.7,92.6,115.3,92.6 M19.8,113.6L19.8,113.6 M115.3,87.6c-3.6,0-6,2-7.3,3.1c-5.3,4.5-9.9,9.6-13.2,13.5
				c-0.9,1.1-1.8,2.2-2.7,3.3c0.1-0.3,0.2-0.7,0.3-1c2.2-6.8-0.9-13.1-7.8-15.7c-1.3-0.5-2.5-0.7-3.6-0.7c-2,0-3.9,0.7-5.5,2
				c-0.3,0.3-0.6,0.5-0.9,0.8c-1.3,1.1-2.7,2.3-4,3.8c-2.6,3.1-5.2,6.3-7.8,9.5c0-0.4,0.1-0.7,0.1-1.1c0.4-4.6-0.7-8.6-3.5-11.7
				c-2.7-3.1-5.5-3.8-7.3-3.8c-2.5,0-4.9,1.1-7.1,3.3c-5.8,5.9-12.3,11.3-19.4,16.1l0.7-3.9l-8.5,3.8c-0.1,0.1-0.3,0.1-0.3,0.1
				c-0.4,0.2-1.1,0.4-1.8,1c-0.7,0.6-1.5,1.1-2.2,1.7c-2.4,1.8-4.8,3.7-7.2,5.7c-1.8,1.6-2.8,3.7-3.3,5.3c-1.2,3.6-0.3,7.5,2.3,10.2
				c1.6,1.7,3.6,2.6,5.9,2.6c1.6,0,3-0.4,4-0.8l0.6-0.2c1.9-0.7,3.9-1.4,5.9-2.4c6.7-3.3,13.2-7.2,19.7-11.6
				c-0.7,2.5-1.5,4.9-2.5,7.3c-4.2,10.6-9.8,20.5-16.1,31.4c-0.8,1.5-1.8,3.1-2.6,4.9c-1.3,2.7-1.2,5.6,0.2,8.1c2.1,3.8,5.5,6,9.3,6
				c3.5,0,6.8-2,8.9-5.4c0.1-0.1,0.1-0.2,0.2-0.3c6.3-10.4,13.4-20.9,21.7-32.4c-0.9,2.1-1.8,4.4-2.8,6.7c-0.7,1.7-1.4,3.3-2.1,5
				c-1.1,2.5-2.2,5.2-3.3,7.8c-1.9,4.9-0.8,8.9,3.4,12.1c1.5,1.1,3,2,4.6,2.7c1.3,0.6,2.7,0.9,4,0.9c1.9,0,4.7-0.6,7.2-3.5
				c0.9-1,1.7-2.1,2.5-3.4c2.7-5,5.7-9.9,8.8-14.7c-0.8,2.3-1.6,4.7-2.3,7l-0.1,0.2c-2.5,7.9-5.1,16.1-4.6,25.2
				c0.2,3.6,0.7,6.9,1.5,9.9c1.4,5.3,4.7,6.1,6.5,6.1c3,0,4.9-2.1,6.2-3.6c4.2-5.3,8.4-10.8,12.5-16.1l0.8-1
				c0.4-0.6,1.1-1.5,1.5-2.6c0.7-1.8,1.3-5.3-1.7-9c-0.7-0.9-1.6-1.5-2.5-1.9c0-0.1,0-0.2,0.1-0.2c0.8-3.5,1.6-6.8,2.7-10.1
				c4-12,9.1-23.5,15.4-37c1.1-2.3,2.2-4.7,3.4-6.9c1.2-2.5,2.5-5.1,3.7-7.7c1.4-3,1.5-6.7,0.2-10c-1.3-3.5-3.8-6.3-7-7.7
				c-0.8-0.4-1.7-0.6-2.6-0.7C116,87.6,115.7,87.6,115.3,87.6L115.3,87.6z M19.8,108.6L19.8,108.6L19.8,108.6L19.8,108.6z"/>
		</g>
	</g>
	<g>
		<g>
			<path class="st3" d="M63,237.2c-11.3,0-16.4-11.2-16.4-22.4c0-14.3,6.1-22.8,16.4-22.8c6.7,0,11.8,4,13.9,11l0.7,2.2l-12,4.6H78
				v5.5C78,229.4,72.7,237.2,63,237.2z M60.7,222.1c0.6,1.9,1.5,3,2.6,3c1,0,1.6-1.4,1.8-3H60.7z M62.9,204.1c-1.2,0-2,2.1-2.3,3.3
				c-0.7,2.6-0.8,5.6-0.8,7.2c0,2.7,0.2,4.9,0.6,6.6v-11.3h4.6l-0.5-2.8c-0.5-2.7-1-3-1.5-3C63.1,204.1,62.9,204.1,62.9,204.1z"/>
			<path class="st2" d="M63,194.5c5.9,0,9.8,3.7,11.5,9.2l-7.5,2.9c-0.4-2-1-5-3.9-5c-0.1,0-0.2,0-0.2,0c-5,0-5.5,9.4-5.5,13
				c0,4,0.3,13,5.9,13c3.9,0,4.5-5.3,4.5-7.9h-4.9v-7.2h12.6v3c0,8.3-2,19.3-12.5,19.3c-10.5,0-13.9-11.3-13.9-19.9
				C49.1,205.8,52,194.5,63,194.5 M63,189.5c-11.6,0-18.9,9.7-18.9,25.3c0,12.4,5.8,24.9,18.9,24.9c5.3,0,17.5-2.4,17.5-24.3v-3v-5
				H79l1.6-0.6l-1.3-4.4C76.9,194.3,70.8,189.5,63,189.5L63,189.5z"/>
		</g>
		<g>
			<path class="st3" d="M95.8,237.2c-7.8,0-16.2-5.9-16.2-22.6S87.9,192,95.8,192s16.2,5.9,16.2,22.6S103.6,237.2,95.8,237.2z
				 M95.8,204.1c-1.5,0-3,3.6-3,10.5c0,5.9,1.3,10.5,3,10.5c1.7,0,3-4.6,3-10.5C98.7,207.7,97.2,204.1,95.8,204.1z"/>
			<path class="st2" d="M95.8,194.5c6.9,0,13.7,5.5,13.7,20.1c0,14.6-6.8,20.1-13.7,20.1c-6.9,0-13.7-5.5-13.7-20.1
				C82.1,200,88.9,194.5,95.8,194.5 M95.8,227.5c5.1,0,5.5-9.9,5.5-13c0-3.5-0.4-13-5.5-13c-5.1,0-5.5,9.5-5.5,13
				C90.3,217.7,90.6,227.5,95.8,227.5 M95.8,189.5c-8.6,0-18.7,6.6-18.7,25.1s10.1,25.1,18.7,25.1c8.6,0,18.7-6.6,18.7-25.1
				S104.4,189.5,95.8,189.5L95.8,189.5z M95.8,220.1c-0.3-1.4-0.5-3.2-0.5-5.5c0-2.5,0.2-4.4,0.5-5.7c0.3,1.3,0.5,3.2,0.5,5.7
				C96.2,216.9,96,218.8,95.8,220.1L95.8,220.1z"/>
		</g>
		<g>
			<polygon class="st3" points="114.9,236.5 114.9,192.6 127.6,192.6 127.6,224.3 135.6,224.3 135.6,236.5 			"/>
			<path class="st2" d="M125.1,195.1v31.7h8.1v7.2h-15.7v-38.9H125.1 M130.1,190.1h-5h-7.7h-5v5V234v5h5h15.7h5v-5v-7.2v-5h-5h-3.1
				v-26.7V190.1L130.1,190.1z"/>
		</g>
		<g>
			<path class="st3" d="M138,236.5v-43.9h8.3l0.2,0c0.3,0,0.8,0,1.3,0c5.5,0,18.4,2.2,18.4,22.3c0,14-6.7,21.7-18.9,21.7H138z
				 M150.7,223.9c0.5-0.4,1.1-1.1,1.6-2.2c0.8-1.8,1.3-4.4,1.3-6.9c0-0.9-0.1-7-2.9-9.4V223.9z"/>
			<path class="st2" d="M147.9,195.1c4.4,0,15.9,1.4,15.9,19.8c0,11.1-4.3,19.2-16.4,19.2h-6.9v-38.9h5.8
				C146.6,195.1,147.1,195.1,147.9,195.1 M148.6,227.1c5.9,0,7.5-7.5,7.5-12.3c0-5-1.5-12.8-7.9-12.8v25.1
				C148.3,227.1,148.4,227.1,148.6,227.1 M147.9,190.1L147.9,190.1c-0.6,0-1.2,0-1.5,0l-0.1,0h-5.8h-5v5V234v5h5h6.9
				c13.6,0,21.4-8.8,21.4-24.2C168.8,191.9,152.8,190.1,147.9,190.1L147.9,190.1z"/>
		</g>
	</g>
	<g>
		<g>
			<path class="st2" d="M180.5,231l0.6,1.3l-1.6,0.7l4.3,9.7l-1.5,0.6l-4.3-9.7l-1.7,0.8l-0.6-1.3L180.5,231z"/>
		</g>
		<g>
			<path class="st2" d="M190,232.7c1,1.9,2.9,5.4,0.2,6.9c-2.7,1.5-4.7-2-5.7-3.9c-1-1.9-2.9-5.4-0.2-6.9S188.9,230.8,190,232.7z
				 M186,234.9c1.2,2.2,2.4,4,3.5,3.4c1.1-0.6,0.2-2.6-1-4.8c-1.2-2.2-2.4-4-3.5-3.4C183.9,230.8,184.8,232.7,186,234.9z"/>
		</g>
		<g>
			<path class="st2" d="M195.8,221.5l0.8,1.1l-1.5,1.1l6.3,8.6l-1.3,0.9l-6.3-8.6l-1.5,1.1l-0.8-1.1L195.8,221.5z"/>
		</g>
		<g>
			<path class="st2" d="M205.4,221.2c1.4,1.6,4,4.7,1.7,6.7c-2.3,2-5-1-6.4-2.6c-1.4-1.6-4-4.7-1.7-6.7
				C201.3,216.6,203.9,219.6,205.4,221.2z M201.9,224.2c1.7,1.9,3.2,3.4,4.1,2.6c1-0.8-0.3-2.5-2-4.5c-1.7-1.9-3.2-3.4-4.1-2.6
				C199,220.6,200.2,222.3,201.9,224.2z"/>
		</g>
		<g>
			<path class="st2" d="M206.1,211.9l1,1l-1.9,1.9l2.7,2.6l1.7-1.7l1,1l-1.7,1.7l2.9,2.8l1.9-1.9l1,1l-3,3.1l-8.6-8.4L206.1,211.9z"
				/>
		</g>
	</g>
	<g>
		<g>
			<path class="st2" d="M151.5,41.4l-0.6,4.7l2.4,0.3l0.6-4.7l1.6,0.2L154,53.9l-1.6-0.2l0.7-5.9l-2.4-0.3l-0.7,5.9l-1.6-0.2
				l1.5-11.9L151.5,41.4z"/>
		</g>
		<g>
			<path class="st2" d="M163.5,43.5l-0.3,1.4l-2.6-0.5l-0.8,3.7l2.4,0.5l-0.3,1.4l-2.4-0.5l-0.8,4l2.6,0.5l-0.3,1.4l-4.2-0.9
				l2.4-11.8L163.5,43.5z"/>
		</g>
		<g>
			<path class="st2" d="M169.4,45l-0.8,12.3l-1.5-0.4l0.2-2.4l-2.3-0.7l-1.1,2.1l-1.5-0.4l5.8-10.8L169.4,45z M167.5,51.5l0.6-4.4
				l0,0l-2.6,5.6l1.8,0.5L167.5,51.5z"/>
		</g>
		<g>
			<path class="st2" d="M176.1,47.3l-3.7,10l2.5,0.9l-0.5,1.3l-4-1.5l4.2-11.3L176.1,47.3z"/>
		</g>
		<g>
			<path class="st2" d="M177.8,60.9l-1.5-0.6l4.8-11l1.5,0.6L177.8,60.9z"/>
		</g>
		<g>
			<path class="st2" d="M185.6,55.3L184,59l-2.1,3.9l-1.4-0.7l5.6-10.7l1.4,0.7l-1.8,9.4l0,0l1.9-4.4l2-3.8l1.4,0.7l-5.6,10.7
				l-1.3-0.7l1.8-9.5l0,0L185.6,55.3z"/>
		</g>
		<g>
			<path class="st2" d="M196.2,64l-0.1,0.2c-1.2,1.9-3.1,5.5-5.8,3.8c-2.4-1.5-1.2-4,0.6-6.9c1.8-2.8,3.6-5.1,5.9-3.6
				c1.4,0.9,1.7,2.1,1.1,3.7l-1.6-0.3c0.3-0.8,0.5-1.5-0.3-2.1c-1.1-0.7-2.1,0.7-3.7,3.2c-2.3,3.5-1.9,4.3-1.3,4.7
				c0.5,0.4,1.2,0.7,2.8-1.7l0.4-0.5l-1.1-0.7l0.8-1.2L196.2,64z"/>
		</g>
		<g>
			<path class="st2" d="M209.3,67.1l-0.9,1.1l-2.1-1.8l-2.4,2.9l1.9,1.6l-0.9,1.1l-1.9-1.6l-3.5,4.2l-1.2-1l7.8-9.2L209.3,67.1z"/>
		</g>
		<g>
			<path class="st2" d="M211.6,69.1l1.4,1.3c0.8,0.8,2.1,2.1,0,4.3c-0.8,0.8-2.2,1.8-3.3,1.1l-2.5,5.7l-1.2-1.2l2.6-5.7l0,0
				l-4.1,4.2l-1.1-1.1L211.6,69.1z M211.5,73.8c0.8-0.8,1.4-1.6,0.5-2.4l-0.2-0.2L209,74C209.8,74.9,210.6,74.6,211.5,73.8z"/>
		</g>
		<g>
			<path class="st2" d="M217,83.6c-1.6,1.4-4.7,4-6.7,1.7c-2-2.3,1-5,2.6-6.4c1.6-1.4,4.7-4,6.7-1.7C221.6,79.6,218.6,82.2,217,83.6
				z M214,80.2c-1.9,1.7-3.4,3.2-2.6,4.1c0.8,1,2.5-0.3,4.5-2c1.9-1.7,3.4-3.2,2.6-4.1C217.6,77.3,215.9,78.5,214,80.2z"/>
		</g>
		<g>
			<path class="st2" d="M224.9,84.1l-6.1,6.4l0,0l0.4-0.2l2.6-1.3l4.9-2.2l0.8,1.1l-9.2,7.8l-0.9-1.3l3.5-2.8l1.8-1.4l1.3-0.9l0,0
				l-1.6,0.8l-6.1,2.8l-0.6-0.9l5.9-6l0,0l-7.1,4.4l-0.9-1.2l10.4-6.1L224.9,84.1z"/>
		</g>
		<g>
			<path class="st2" d="M234.1,99.4l-1.2,0.6l-0.8-1.6l-9.4,5l-0.7-1.4l9.4-5l-0.9-1.7l1.2-0.6L234.1,99.4z"/>
		</g>
		<g>
			<path class="st2" d="M232.1,109.6c-2,0.9-5.7,2.4-6.9-0.4c-1.2-2.8,2.4-4.5,4.4-5.3c2-0.9,5.7-2.4,6.9,0.4
				C237.8,107.2,234.1,108.8,232.1,109.6z M230.3,105.4c-2.3,1-4.2,2-3.7,3.2c0.5,1.2,2.5,0.5,4.9-0.5c2.3-1,4.2-2,3.7-3.2
				C234.7,103.7,232.7,104.4,230.3,105.4z"/>
		</g>
		<g>
			<path class="st2" d="M227.5,114.5l11.4-3.8l0.6,1.8c0.4,1.3,0.9,3-2.1,4c-2.3,0.8-3.7,0.2-4.4-2.2L228,116L227.5,114.5z
				 M238.1,112.6l-3.8,1.3c0.3,1.3,1.2,1.5,2.4,1c1-0.3,1.8-0.9,1.4-2.1L238.1,112.6z"/>
		</g>
	</g>
</g>
</svg>
